{"glyphs":{"0":{"ha":889,"x_min":0,"x_max":0,"o":"m 321 913 l 321 972 l 568 972 l 568 913 z m 101 778 l 278 954 l 319 913 l 143 736 z m 569 913 l 611 954 l 789 778 l 746 735 z m 283 97 l 551 890 l 608 871 l 339 78 z m 83 238 l 83 735 l 143 735 l 143 238 z m 746 236 l 746 733 l 806 733 l 806 236 z m 101 194 l 143 236 l 319 60 l 278 18 z m 569 60 l 746 235 l 788 193 l 611 17 z m 321 0 l 321 60 l 568 60 l 568 0 z "},"1":{"ha":592,"x_min":0,"x_max":0,"o":"m 28 558 l 232 992 l 286 967 l 82 533 z m 288 74 l 288 967 l 347 967 l 347 74 z m 68 0 l 68 60 l 578 60 l 578 0 z "},"2":{"ha":708,"x_min":0,"x_max":0,"o":"m 56 747 l 299 990 l 340 947 l 99 706 z m 343 947 l 386 989 l 628 747 l 586 706 z m 60 101 l 586 703 l 631 663 l 104 61 z m 65 0 l 65 60 l 657 60 l 657 0 z "},"3":{"ha":638,"x_min":0,"x_max":0,"o":"m 110 913 l 110 972 l 478 972 l 478 913 z m 318 606 l 499 947 l 551 919 l 371 578 z m 138 517 l 138 576 l 501 576 l 501 517 z m 279 15 l 526 568 l 582 543 l 333 -10 z m 42 260 l 90 293 l 278 17 l 229 -17 z "},"4":{"ha":690,"x_min":0,"x_max":0,"o":"m 126 331 l 571 983 l 621 949 l 175 296 z m 518 0 l 518 792 l 578 792 l 578 0 z m 21 235 l 21 294 l 493 294 l 493 235 z "},"5":{"ha":792,"x_min":0,"x_max":0,"o":"m 110 749 l 239 983 l 292 954 l 163 721 z m 254 825 l 254 885 l 686 885 l 686 825 z m 125 675 l 164 719 l 676 267 l 636 222 z m 122 61 l 122 306 l 182 306 l 182 61 z m 475 61 l 636 219 l 678 178 l 518 18 z m 183 0 l 183 60 l 474 60 l 474 0 z "},"6":{"ha":714,"x_min":0,"x_max":0,"o":"m 33 82 l 372 983 l 428 963 l 89 61 z m 111 117 l 481 532 l 525 493 l 156 76 z m 522 486 l 579 497 l 669 74 l 611 61 z m 89 0 l 89 60 l 639 60 l 639 0 z "},"7":{"ha":681,"x_min":0,"x_max":0,"o":"m 14 914 l 14 972 l 624 972 l 624 914 z m 63 15 l 624 911 l 674 879 l 113 -17 z "},"8":{"ha":721,"x_min":0,"x_max":0,"o":"m 160 913 l 160 972 l 565 972 l 565 913 z m 99 888 l 154 911 l 361 450 l 307 425 z m 364 450 l 569 910 l 624 886 l 418 425 z m 129 364 l 129 424 l 590 424 l 590 364 z m 69 63 l 69 363 l 128 363 l 128 63 z m 592 63 l 592 363 l 651 363 l 651 63 z m 129 0 l 129 60 l 590 60 l 590 0 z "},"9":{"ha":694,"x_min":0,"x_max":0,"o":"m 118 913 l 118 972 l 521 972 l 521 913 z m 56 715 l 56 911 l 115 911 l 115 715 z m 524 61 l 524 910 l 583 910 l 583 61 z m 56 665 l 93 713 l 521 378 l 483 332 z m 85 0 l 85 60 l 522 60 l 522 0 z "}," ":{"ha":556,"x_min":0,"x_max":0,"o":""},"A":{"ha":899,"x_min":0,"x_max":0,"o":"m 14 4 l 392 983 l 447 961 l 69 -17 z m 449 961 l 504 983 l 882 4 l 826 -17 z m 226 324 l 226 383 l 669 383 l 669 324 z "},"Á":{"ha":899,"x_min":0,"x_max":0,"o":"m 286 1157 l 575 1399 l 613 1354 l 324 1111 z m 14 4 l 392 983 l 447 961 l 69 -17 z m 449 961 l 504 983 l 882 4 l 826 -17 z m 226 324 l 226 383 l 669 383 l 669 324 z "},"Â":{"ha":899,"x_min":0,"x_max":0,"o":"m 265 1140 l 393 1382 l 446 1354 l 318 1111 z m 451 1354 l 504 1382 l 633 1140 l 581 1111 z m 14 4 l 392 983 l 447 961 l 69 -17 z m 449 961 l 504 983 l 882 4 l 826 -17 z m 226 324 l 226 383 l 669 383 l 669 324 z "},"Ä":{"ha":899,"x_min":0,"x_max":0,"o":"m 183 1200 l 257 1338 l 310 1308 l 236 1171 z m 315 1308 l 368 1338 l 442 1200 l 389 1171 z m 460 1200 l 533 1338 l 586 1308 l 513 1171 z m 592 1308 l 644 1338 l 718 1200 l 665 1171 z m 240 1111 l 240 1171 l 385 1171 l 385 1111 z m 517 1111 l 517 1171 l 661 1171 l 661 1111 z m 14 4 l 392 983 l 447 961 l 69 -17 z m 449 961 l 504 983 l 882 4 l 826 -17 z m 226 324 l 226 383 l 669 383 l 669 324 z "},"À":{"ha":899,"x_min":0,"x_max":0,"o":"m 286 1353 l 325 1399 l 614 1157 l 576 1111 z m 14 4 l 392 983 l 447 961 l 69 -17 z m 449 961 l 504 983 l 882 4 l 826 -17 z m 226 324 l 226 383 l 669 383 l 669 324 z "},"Å":{"ha":899,"x_min":0,"x_max":0,"o":"m 374 1332 l 374 1392 l 525 1392 l 525 1332 z m 308 1176 l 308 1326 l 368 1326 l 368 1176 z m 531 1176 l 531 1326 l 590 1326 l 590 1176 z m 374 1111 l 374 1171 l 525 1171 l 525 1111 z m 14 4 l 392 983 l 447 961 l 69 -17 z m 449 961 l 504 983 l 882 4 l 826 -17 z m 226 324 l 226 383 l 669 383 l 669 324 z "},"Ã":{"ha":899,"x_min":0,"x_max":0,"o":"m 292 1285 l 324 1336 l 607 1161 l 576 1111 z m 613 1167 l 649 1324 l 707 1310 l 669 1153 z m 193 1136 l 229 1293 l 288 1279 l 251 1122 z m 14 4 l 392 983 l 447 961 l 69 -17 z m 449 961 l 504 983 l 882 4 l 826 -17 z m 226 324 l 226 383 l 669 383 l 669 324 z "},"Æ":{"ha":1117,"x_min":0,"x_max":0,"o":"m 14 13 l 490 986 l 543 960 l 67 -12 z m 582 913 l 582 972 l 1047 972 l 1047 913 z m 521 63 l 521 910 l 581 910 l 581 63 z m 611 436 l 611 496 l 953 496 l 953 436 z m 264 324 l 264 383 l 500 383 l 500 324 z m 582 0 l 582 60 l 1047 60 l 1047 0 z "},"B":{"ha":710,"x_min":0,"x_max":0,"o":"m 138 951 l 182 992 l 510 626 l 465 586 z m 111 63 l 111 914 l 169 914 l 169 63 z m 171 547 l 582 599 l 589 540 l 178 489 z m 171 444 l 207 492 l 703 107 l 665 60 z m 171 0 l 171 60 l 664 60 l 664 0 z "},"C":{"ha":774,"x_min":0,"x_max":0,"o":"m 128 739 l 375 997 l 418 956 l 171 697 z m 419 956 l 463 997 l 710 739 l 668 697 z m 111 61 l 111 696 l 171 696 l 171 61 z m 172 0 l 172 60 l 732 60 l 732 0 z "},"Ç":{"ha":774,"x_min":0,"x_max":0,"o":"m 128 739 l 375 997 l 418 956 l 171 697 z m 419 956 l 463 997 l 710 739 l 668 697 z m 111 61 l 111 696 l 171 696 l 171 61 z m 172 0 l 172 60 l 732 60 l 732 0 z m 306 -132 l 329 -78 l 594 -190 l 571 -244 z m 594 -306 l 329 -418 l 306 -364 l 571 -251 z "},"D":{"ha":863,"x_min":0,"x_max":0,"o":"m 28 913 l 28 972 l 532 972 l 532 913 z m 535 911 l 581 950 l 806 683 l 760 646 z m 150 75 l 150 897 l 210 897 l 210 75 z m 761 315 l 761 643 l 821 643 l 821 315 z m 535 60 l 761 314 l 806 274 l 579 21 z m 28 0 l 28 60 l 533 60 l 533 0 z "},"E":{"ha":756,"x_min":0,"x_max":0,"o":"m 172 913 l 172 972 l 679 972 l 679 913 z m 111 61 l 111 911 l 171 911 l 171 61 z m 201 436 l 201 496 l 585 496 l 585 436 z m 172 0 l 172 60 l 679 60 l 679 0 z "},"É":{"ha":756,"x_min":0,"x_max":0,"o":"m 214 1157 l 503 1399 l 540 1354 l 251 1111 z m 172 913 l 172 972 l 679 972 l 679 913 z m 111 61 l 111 911 l 171 911 l 171 61 z m 201 436 l 201 496 l 585 496 l 585 436 z m 172 0 l 172 60 l 679 60 l 679 0 z "},"Ê":{"ha":756,"x_min":0,"x_max":0,"o":"m 193 1140 l 321 1382 l 374 1354 l 246 1111 z m 379 1354 l 432 1382 l 561 1140 l 508 1111 z m 172 913 l 172 972 l 679 972 l 679 913 z m 111 61 l 111 911 l 171 911 l 171 61 z m 201 436 l 201 496 l 585 496 l 585 436 z m 172 0 l 172 60 l 679 60 l 679 0 z "},"Ë":{"ha":756,"x_min":0,"x_max":0,"o":"m 111 1200 l 185 1338 l 238 1308 l 164 1171 z m 243 1308 l 296 1338 l 369 1200 l 317 1171 z m 388 1200 l 461 1338 l 514 1308 l 440 1171 z m 519 1308 l 572 1338 l 646 1200 l 593 1171 z m 168 1111 l 168 1171 l 313 1171 l 313 1111 z m 444 1111 l 444 1171 l 589 1171 l 589 1111 z m 172 913 l 172 972 l 679 972 l 679 913 z m 111 61 l 111 911 l 171 911 l 171 61 z m 201 436 l 201 496 l 585 496 l 585 436 z m 172 0 l 172 60 l 679 60 l 679 0 z "},"È":{"ha":756,"x_min":0,"x_max":0,"o":"m 214 1353 l 253 1399 l 542 1157 l 504 1111 z m 172 913 l 172 972 l 679 972 l 679 913 z m 111 61 l 111 911 l 171 911 l 171 61 z m 201 436 l 201 496 l 585 496 l 585 436 z m 172 0 l 172 60 l 679 60 l 679 0 z "},"F":{"ha":711,"x_min":0,"x_max":0,"o":"m 28 913 l 28 972 l 683 972 l 683 913 z m 146 0 l 146 878 l 206 878 l 206 0 z m 233 496 l 233 556 l 631 556 l 631 496 z "},"G":{"ha":806,"x_min":0,"x_max":0,"o":"m 172 913 l 172 972 l 722 972 l 722 913 z m 111 22 l 111 910 l 171 910 l 171 22 z m 294 460 l 294 519 l 689 519 l 689 460 z m 174 22 l 649 458 l 689 414 l 214 -22 z m 690 0 l 690 458 l 750 458 l 750 0 z "},"H":{"ha":796,"x_min":0,"x_max":0,"o":"m 111 0 l 111 972 l 171 972 l 171 0 z m 626 0 l 626 972 l 685 972 l 685 0 z m 204 451 l 204 511 l 589 511 l 589 451 z "},"I":{"ha":621,"x_min":0,"x_max":0,"o":"m 42 972 l 579 972 l 579 913 l 42 913 z m 281 896 l 340 896 l 340 76 l 281 76 z m 42 60 l 579 60 l 579 0 l 42 0 z "},"Í":{"ha":621,"x_min":0,"x_max":0,"o":"m 147 1157 l 436 1399 l 474 1354 l 185 1111 z m 42 972 l 579 972 l 579 913 l 42 913 z m 281 896 l 340 896 l 340 76 l 281 76 z m 42 60 l 579 60 l 579 0 l 42 0 z "},"Î":{"ha":621,"x_min":0,"x_max":0,"o":"m 126 1140 l 254 1382 l 307 1354 l 179 1111 z m 313 1354 l 365 1382 l 494 1140 l 442 1111 z m 42 972 l 579 972 l 579 913 l 42 913 z m 281 896 l 340 896 l 340 76 l 281 76 z m 42 60 l 579 60 l 579 0 l 42 0 z "},"Ï":{"ha":621,"x_min":0,"x_max":0,"o":"m 44 1200 l 118 1338 l 171 1308 l 97 1171 z m 176 1308 l 229 1338 l 303 1200 l 250 1171 z m 321 1200 l 394 1338 l 447 1308 l 374 1171 z m 453 1308 l 506 1338 l 579 1200 l 526 1171 z m 101 1111 l 101 1171 l 246 1171 l 246 1111 z m 378 1111 l 378 1171 l 522 1171 l 522 1111 z m 42 972 l 579 972 l 579 913 l 42 913 z m 281 896 l 340 896 l 340 76 l 281 76 z m 42 60 l 579 60 l 579 0 l 42 0 z "},"Ì":{"ha":621,"x_min":0,"x_max":0,"o":"m 147 1353 l 186 1399 l 475 1157 l 438 1111 z m 42 972 l 579 972 l 579 913 l 42 913 z m 281 896 l 340 896 l 340 76 l 281 76 z m 42 60 l 579 60 l 579 0 l 42 0 z "},"J":{"ha":744,"x_min":0,"x_max":0,"o":"m 129 913 l 129 972 l 731 972 l 731 913 z m 476 61 l 476 893 l 536 893 l 536 61 z m 69 61 l 69 340 l 128 340 l 128 61 z m 128 0 l 128 60 l 475 60 l 475 0 z "},"K":{"ha":760,"x_min":0,"x_max":0,"o":"m 172 529 l 669 983 l 710 940 l 213 485 z m 111 0 l 111 972 l 171 972 l 171 0 z m 172 440 l 213 483 l 711 28 l 671 -17 z "},"L":{"ha":728,"x_min":0,"x_max":0,"o":"m 111 61 l 111 972 l 171 972 l 171 61 z m 174 0 l 174 60 l 714 60 l 714 0 z "},"M":{"ha":1197,"x_min":0,"x_max":0,"o":"m 175 960 l 229 983 l 603 151 l 549 128 z m 604 151 l 968 983 l 1022 960 l 658 128 z m 111 0 l 111 961 l 171 961 l 171 0 z m 1026 0 l 1026 961 l 1086 961 l 1086 0 z "},"N":{"ha":882,"x_min":0,"x_max":0,"o":"m 111 0 l 111 972 l 171 972 l 171 0 z m 711 0 l 711 972 l 771 972 l 771 0 z m 174 853 l 226 882 l 710 28 l 658 -1 z "},"Ñ":{"ha":882,"x_min":0,"x_max":0,"o":"m 283 1285 l 315 1336 l 599 1161 l 568 1111 z m 604 1167 l 640 1324 l 699 1310 l 661 1153 z m 185 1136 l 221 1293 l 279 1279 l 243 1122 z m 111 0 l 111 972 l 171 972 l 171 0 z m 711 0 l 711 972 l 771 972 l 771 0 z m 174 853 l 226 882 l 710 28 l 658 -1 z "},"O":{"ha":1054,"x_min":0,"x_max":0,"o":"m 486 985 l 528 943 l 71 483 l 28 526 z m 572 985 l 1026 528 l 983 486 l 529 943 z m 983 485 l 1025 443 l 568 -17 l 526 25 z m 71 482 l 525 25 l 482 -17 l 29 440 z "},"Ó":{"ha":1054,"x_min":0,"x_max":0,"o":"m 364 1157 l 653 1399 l 690 1354 l 401 1111 z m 486 985 l 528 943 l 71 483 l 28 526 z m 572 985 l 1026 528 l 983 486 l 529 943 z m 983 485 l 1025 443 l 568 -17 l 526 25 z m 71 482 l 525 25 l 482 -17 l 29 440 z "},"Ô":{"ha":1054,"x_min":0,"x_max":0,"o":"m 343 1140 l 471 1382 l 524 1354 l 396 1111 z m 529 1354 l 582 1382 l 711 1140 l 658 1111 z m 486 985 l 528 943 l 71 483 l 28 526 z m 572 985 l 1026 528 l 983 486 l 529 943 z m 983 485 l 1025 443 l 568 -17 l 526 25 z m 71 482 l 525 25 l 482 -17 l 29 440 z "},"Ö":{"ha":1054,"x_min":0,"x_max":0,"o":"m 261 1200 l 335 1338 l 388 1308 l 314 1171 z m 393 1308 l 446 1338 l 519 1200 l 467 1171 z m 538 1200 l 611 1338 l 664 1308 l 590 1171 z m 669 1308 l 722 1338 l 796 1200 l 743 1171 z m 318 1111 l 318 1171 l 463 1171 l 463 1111 z m 594 1111 l 594 1171 l 739 1171 l 739 1111 z m 486 985 l 528 943 l 71 483 l 28 526 z m 572 985 l 1026 528 l 983 486 l 529 943 z m 983 485 l 1025 443 l 568 -17 l 526 25 z m 71 482 l 525 25 l 482 -17 l 29 440 z "},"Ò":{"ha":1054,"x_min":0,"x_max":0,"o":"m 364 1353 l 403 1399 l 692 1157 l 654 1111 z m 486 985 l 528 943 l 71 483 l 28 526 z m 572 985 l 1026 528 l 983 486 l 529 943 z m 983 485 l 1025 443 l 568 -17 l 526 25 z m 71 482 l 525 25 l 482 -17 l 29 440 z "},"Ø":{"ha":1054,"x_min":0,"x_max":0,"o":"m 486 985 l 28 526 l 71 483 l 528 943 z m 983 486 l 1026 528 l 826 729 l 999 893 l 957 936 l 785 772 l 572 985 l 529 943 l 740 731 l 269 282 l 71 482 l 29 440 l 226 240 l 56 78 l 97 35 l 269 199 l 482 -17 l 525 25 l 313 239 l 783 688 z m 568 -17 l 1025 443 l 983 485 l 526 25 z "},"Œ":{"ha":1226,"x_min":0,"x_max":0,"o":"m 172 972 l 621 972 l 621 913 l 172 913 z m 685 972 l 1150 972 l 1150 913 l 685 913 z m 111 913 l 171 913 l 171 60 l 111 60 z m 624 911 l 683 911 l 683 63 l 624 63 z m 714 496 l 1056 496 l 1056 436 l 714 436 z m 172 60 l 622 60 l 622 0 l 172 0 z m 686 60 l 1150 60 l 1150 0 l 686 0 z "},"P":{"ha":819,"x_min":0,"x_max":0,"o":"m 75 972 l 621 972 l 621 913 l 75 913 z m 571 910 l 722 754 l 679 713 l 529 868 z m 146 892 l 206 892 l 206 0 l 146 0 z m 739 739 l 783 697 l 565 467 l 521 507 z m 225 465 l 621 465 l 621 406 l 225 406 z "},"Q":{"ha":807,"x_min":0,"x_max":0,"o":"m 172 972 l 635 972 l 635 913 l 172 913 z m 111 911 l 171 911 l 171 63 l 111 63 z m 636 911 l 696 911 l 696 63 l 636 63 z m 331 242 l 613 -179 l 563 -212 l 282 208 z m 172 60 l 378 60 l 378 0 l 172 0 z m 496 60 l 635 60 l 635 0 l 496 0 z "},"R":{"ha":736,"x_min":0,"x_max":0,"o":"m 79 913 l 79 972 l 639 972 l 639 913 z m 128 0 l 128 899 l 188 899 l 188 0 z m 608 500 l 608 899 l 668 899 l 668 500 z m 201 426 l 201 486 l 639 486 l 639 426 z m 321 404 l 376 425 l 539 -1 l 483 -22 z "},"S":{"ha":665,"x_min":0,"x_max":0,"o":"m 31 553 l 463 983 l 504 940 l 74 510 z m 47 449 l 47 508 l 603 508 l 603 449 z m 151 26 l 592 447 l 632 404 l 193 -17 z "},"T":{"ha":696,"x_min":0,"x_max":0,"o":"m 14 913 l 14 972 l 682 972 l 682 913 z m 318 0 l 318 896 l 378 896 l 378 0 z "},"U":{"ha":846,"x_min":0,"x_max":0,"o":"m 111 61 l 111 972 l 171 972 l 171 61 z m 649 0 l 649 972 l 707 972 l 707 0 z m 435 60 l 606 219 l 647 176 l 475 17 z m 172 0 l 172 60 l 433 60 l 433 0 z "},"Ú":{"ha":846,"x_min":0,"x_max":0,"o":"m 260 1157 l 549 1399 l 586 1354 l 297 1111 z m 111 61 l 111 972 l 171 972 l 171 61 z m 649 0 l 649 972 l 707 972 l 707 0 z m 435 60 l 606 219 l 647 176 l 475 17 z m 172 0 l 172 60 l 433 60 l 433 0 z "},"Û":{"ha":846,"x_min":0,"x_max":0,"o":"m 239 1140 l 367 1382 l 419 1354 l 292 1111 z m 425 1354 l 478 1382 l 607 1140 l 554 1111 z m 111 61 l 111 972 l 171 972 l 171 61 z m 649 0 l 649 972 l 707 972 l 707 0 z m 435 60 l 606 219 l 647 176 l 475 17 z m 172 0 l 172 60 l 433 60 l 433 0 z "},"Ü":{"ha":846,"x_min":0,"x_max":0,"o":"m 157 1200 l 231 1338 l 283 1308 l 210 1171 z m 289 1308 l 342 1338 l 415 1200 l 363 1171 z m 433 1200 l 507 1338 l 560 1308 l 486 1171 z m 565 1308 l 618 1338 l 692 1200 l 639 1171 z m 214 1111 l 214 1171 l 358 1171 l 358 1111 z m 490 1111 l 490 1171 l 635 1171 l 635 1111 z m 111 61 l 111 972 l 171 972 l 171 61 z m 649 0 l 649 972 l 707 972 l 707 0 z m 435 60 l 606 219 l 647 176 l 475 17 z m 172 0 l 172 60 l 433 60 l 433 0 z "},"Ù":{"ha":846,"x_min":0,"x_max":0,"o":"m 260 1353 l 299 1399 l 588 1157 l 550 1111 z m 111 61 l 111 972 l 171 972 l 171 61 z m 649 0 l 649 972 l 707 972 l 707 0 z m 435 60 l 606 219 l 647 176 l 475 17 z m 172 0 l 172 60 l 433 60 l 433 0 z "},"V":{"ha":668,"x_min":0,"x_max":0,"o":"m 28 969 l 86 983 l 333 -3 l 275 -17 z m 336 -3 l 583 983 l 640 969 l 393 -17 z "},"W":{"ha":1125,"x_min":0,"x_max":0,"o":"m 28 969 l 86 982 l 294 13 l 236 0 z m 296 13 l 504 982 l 563 969 l 354 0 z m 565 969 l 624 982 l 831 13 l 772 0 z m 832 13 l 1039 982 l 1097 969 l 890 0 z "},"X":{"ha":1033,"x_min":0,"x_max":0,"o":"m 7 947 l 43 994 l 515 644 l 479 596 z m 517 644 l 990 994 l 1026 946 l 551 596 z m 74 11 l 465 601 l 515 568 l 124 -22 z m 515 568 l 565 601 l 958 11 l 908 -22 z "},"Y":{"ha":935,"x_min":0,"x_max":0,"o":"m 7 940 l 47 983 l 467 592 l 425 549 z m 468 592 l 888 983 l 928 939 l 508 549 z m 438 0 l 438 558 l 497 558 l 497 0 z "},"Ý":{"ha":935,"x_min":0,"x_max":0,"o":"m 304 1157 l 593 1399 l 631 1354 l 342 1111 z m 7 940 l 47 983 l 467 592 l 425 549 z m 468 592 l 888 983 l 928 939 l 508 549 z m 438 0 l 438 558 l 497 558 l 497 0 z "},"Ŷ":{"ha":935,"x_min":0,"x_max":0,"o":"m 283 1140 l 411 1382 l 464 1354 l 336 1111 z m 469 1354 l 522 1382 l 651 1140 l 599 1111 z m 7 940 l 47 983 l 467 592 l 425 549 z m 468 592 l 888 983 l 928 939 l 508 549 z m 438 0 l 438 558 l 497 558 l 497 0 z "},"Ÿ":{"ha":935,"x_min":0,"x_max":0,"o":"m 201 1200 l 275 1338 l 328 1308 l 254 1171 z m 333 1308 l 386 1338 l 460 1200 l 407 1171 z m 478 1200 l 551 1338 l 604 1308 l 531 1171 z m 610 1308 l 663 1338 l 736 1200 l 683 1171 z m 258 1111 l 258 1171 l 403 1171 l 403 1111 z m 535 1111 l 535 1171 l 679 1171 l 679 1111 z m 7 940 l 47 983 l 467 592 l 425 549 z m 468 592 l 888 983 l 928 939 l 508 549 z m 438 0 l 438 558 l 497 558 l 497 0 z "},"Ỳ":{"ha":935,"x_min":0,"x_max":0,"o":"m 304 1353 l 343 1399 l 632 1157 l 594 1111 z m 7 940 l 47 983 l 467 592 l 425 549 z m 468 592 l 888 983 l 928 939 l 508 549 z m 438 0 l 438 558 l 497 558 l 497 0 z "},"Z":{"ha":1039,"x_min":0,"x_max":0,"o":"m 33 913 l 33 972 l 990 972 l 990 913 z m 13 107 l 990 911 l 1028 865 l 51 61 z m 51 0 l 51 60 l 1006 60 l 1006 0 z "},"a":{"ha":719,"x_min":0,"x_max":0,"o":"m 42 497 l 42 556 l 590 556 l 590 497 z m 140 332 l 563 496 l 585 440 l 163 276 z m 592 0 l 592 496 l 650 496 l 650 0 z m 165 26 l 549 403 l 590 361 l 207 -17 z m 101 29 l 101 272 l 161 272 l 161 29 z "},"á":{"ha":719,"x_min":0,"x_max":0,"o":"m 192 740 l 481 982 l 518 938 l 229 694 z m 42 497 l 42 556 l 590 556 l 590 497 z m 140 332 l 563 496 l 585 440 l 163 276 z m 592 0 l 592 496 l 650 496 l 650 0 z m 165 26 l 549 403 l 590 361 l 207 -17 z m 101 29 l 101 272 l 161 272 l 161 29 z "},"â":{"ha":719,"x_min":0,"x_max":0,"o":"m 171 724 l 299 965 l 351 938 l 224 694 z m 357 938 l 410 965 l 539 724 l 486 694 z m 42 497 l 42 556 l 590 556 l 590 497 z m 140 332 l 563 496 l 585 440 l 163 276 z m 592 0 l 592 496 l 650 496 l 650 0 z m 165 26 l 549 403 l 590 361 l 207 -17 z m 101 29 l 101 272 l 161 272 l 161 29 z "},"ä":{"ha":719,"x_min":0,"x_max":0,"o":"m 89 783 l 163 921 l 215 892 l 142 754 z m 221 892 l 274 921 l 347 783 l 294 754 z m 365 783 l 439 921 l 492 892 l 418 754 z m 497 892 l 550 921 l 624 783 l 571 754 z m 146 694 l 146 754 l 290 754 l 290 694 z m 422 694 l 422 754 l 567 754 l 567 694 z m 42 497 l 42 556 l 590 556 l 590 497 z m 140 332 l 563 496 l 585 440 l 163 276 z m 592 0 l 592 496 l 650 496 l 650 0 z m 165 26 l 549 403 l 590 361 l 207 -17 z m 101 29 l 101 272 l 161 272 l 161 29 z "},"à":{"ha":719,"x_min":0,"x_max":0,"o":"m 192 936 l 231 982 l 519 740 l 482 694 z m 42 497 l 42 556 l 590 556 l 590 497 z m 140 332 l 563 496 l 585 440 l 163 276 z m 592 0 l 592 496 l 650 496 l 650 0 z m 165 26 l 549 403 l 590 361 l 207 -17 z m 101 29 l 101 272 l 161 272 l 161 29 z "},"å":{"ha":719,"x_min":0,"x_max":0,"o":"m 279 915 l 279 975 l 431 975 l 431 915 z m 214 760 l 214 910 l 274 910 l 274 760 z m 436 760 l 436 910 l 496 910 l 496 760 z m 279 694 l 279 754 l 431 754 l 431 694 z m 42 497 l 42 556 l 590 556 l 590 497 z m 140 332 l 563 496 l 585 440 l 163 276 z m 592 0 l 592 496 l 650 496 l 650 0 z m 165 26 l 549 403 l 590 361 l 207 -17 z m 101 29 l 101 272 l 161 272 l 161 29 z "},"ã":{"ha":719,"x_min":0,"x_max":0,"o":"m 197 868 l 229 919 l 513 744 l 482 694 z m 518 750 l 554 907 l 613 893 l 575 736 z m 99 719 l 135 876 l 193 863 l 157 706 z m 42 497 l 42 556 l 590 556 l 590 497 z m 140 332 l 563 496 l 585 440 l 163 276 z m 592 0 l 592 496 l 650 496 l 650 0 z m 165 26 l 549 403 l 590 361 l 207 -17 z m 101 29 l 101 272 l 161 272 l 161 29 z "},"æ":{"ha":1169,"x_min":0,"x_max":0,"o":"m 746 503 l 771 557 l 1156 378 l 1131 324 z m 42 497 l 42 556 l 507 556 l 507 497 z m 571 396 l 704 538 l 747 497 l 614 356 z m 508 63 l 508 494 l 567 494 l 567 63 z m 138 357 l 478 490 l 500 435 l 160 301 z m 583 267 l 583 326 l 1107 326 l 1107 267 z m 163 26 l 458 317 l 500 275 l 204 -17 z m 99 29 l 99 297 l 158 297 l 158 29 z m 569 0 l 569 60 l 964 60 l 964 0 z "},"b":{"ha":681,"x_min":0,"x_max":0,"o":"m 97 972 l 157 972 l 157 0 l 97 0 z m 176 490 l 613 490 l 613 431 l 176 431 z m 160 25 l 613 429 l 653 383 l 200 -19 z "},"c":{"ha":694,"x_min":0,"x_max":0,"o":"m 303 536 l 343 579 l 592 342 l 550 299 z m 28 88 l 246 561 l 300 536 l 82 63 z m 82 0 l 82 60 l 660 60 l 660 0 z "},"ç":{"ha":694,"x_min":0,"x_max":0,"o":"m 303 536 l 343 579 l 592 342 l 550 299 z m 28 88 l 246 561 l 300 536 l 82 63 z m 82 0 l 82 60 l 660 60 l 660 0 z m 200 -132 l 224 -78 l 489 -190 l 465 -244 z m 489 -306 l 224 -418 l 200 -364 l 465 -251 z "},"d":{"ha":681,"x_min":0,"x_max":0,"o":"m 524 0 l 524 972 l 583 972 l 583 0 z m 68 431 l 68 490 l 504 490 l 504 431 z m 28 383 l 68 429 l 521 25 l 481 -19 z "},"e":{"ha":842,"x_min":0,"x_max":0,"o":"m 339 525 l 364 579 l 800 378 l 775 324 z m 56 315 l 294 565 l 338 525 l 99 275 z m 150 267 l 150 326 l 764 326 l 764 267 z m 69 61 l 69 274 l 128 274 l 128 61 z m 129 0 l 129 60 l 608 60 l 608 0 z "},"é":{"ha":842,"x_min":0,"x_max":0,"o":"m 251 740 l 540 982 l 578 938 l 289 694 z m 339 525 l 364 579 l 800 378 l 775 324 z m 56 315 l 294 565 l 338 525 l 99 275 z m 150 267 l 150 326 l 764 326 l 764 267 z m 69 61 l 69 274 l 128 274 l 128 61 z m 129 0 l 129 60 l 608 60 l 608 0 z "},"ê":{"ha":842,"x_min":0,"x_max":0,"o":"m 231 724 l 358 965 l 411 938 l 283 694 z m 417 938 l 469 965 l 599 724 l 546 694 z m 339 525 l 364 579 l 800 378 l 775 324 z m 56 315 l 294 565 l 338 525 l 99 275 z m 150 267 l 150 326 l 764 326 l 764 267 z m 69 61 l 69 274 l 128 274 l 128 61 z m 129 0 l 129 60 l 608 60 l 608 0 z "},"ë":{"ha":842,"x_min":0,"x_max":0,"o":"m 149 783 l 222 921 l 275 892 l 201 754 z m 281 892 l 333 921 l 407 783 l 354 754 z m 425 783 l 499 921 l 551 892 l 478 754 z m 557 892 l 610 921 l 683 783 l 631 754 z m 206 694 l 206 754 l 350 754 l 350 694 z m 482 694 l 482 754 l 626 754 l 626 694 z m 339 525 l 364 579 l 800 378 l 775 324 z m 56 315 l 294 565 l 338 525 l 99 275 z m 150 267 l 150 326 l 764 326 l 764 267 z m 69 61 l 69 274 l 128 274 l 128 61 z m 129 0 l 129 60 l 608 60 l 608 0 z "},"è":{"ha":842,"x_min":0,"x_max":0,"o":"m 251 936 l 290 982 l 579 740 l 542 694 z m 339 525 l 364 579 l 800 378 l 775 324 z m 56 315 l 294 565 l 338 525 l 99 275 z m 150 267 l 150 326 l 764 326 l 764 267 z m 69 61 l 69 274 l 128 274 l 128 61 z m 129 0 l 129 60 l 608 60 l 608 0 z "},"f":{"ha":788,"x_min":0,"x_max":0,"o":"m 246 601 l 681 989 l 719 944 l 285 557 z m 721 764 l 721 943 l 781 943 l 781 764 z m 21 496 l 21 556 l 701 556 l 701 496 z m 253 0 l 253 481 l 313 481 l 313 0 z "},"g":{"ha":722,"x_min":0,"x_max":0,"o":"m 135 776 l 476 844 l 489 786 l 146 718 z m 493 61 l 493 783 l 553 783 l 553 61 z m 83 382 l 83 714 l 143 714 l 143 382 z m 146 381 l 464 551 l 492 499 l 175 328 z m 231 97 l 446 376 l 492 340 l 276 60 z m 554 338 l 613 350 l 688 13 l 629 0 z m 278 0 l 278 60 l 492 60 l 492 0 z "},"h":{"ha":622,"x_min":0,"x_max":0,"o":"m 97 0 l 97 972 l 157 972 l 157 0 z m 181 496 l 181 556 l 478 556 l 478 496 z m 479 0 l 479 494 l 539 494 l 539 0 z "},"i":{"ha":300,"x_min":0,"x_max":0,"o":"m 99 913 l 99 972 l 203 972 l 203 913 z m 33 803 l 33 907 l 93 907 l 93 803 z m 208 803 l 208 907 l 267 907 l 267 803 z m 99 738 l 99 797 l 203 797 l 203 738 z m 121 556 l 181 556 l 181 0 l 121 0 z "},"ı":{"ha":226,"x_min":0,"x_max":0,"o":"m 83 554 l 143 554 l 143 -1 l 83 -1 z "},"í":{"ha":226,"x_min":0,"x_max":0,"o":"m -50 740 l 239 982 l 276 938 l -12 694 z m 83 554 l 143 554 l 143 -1 l 83 -1 z "},"î":{"ha":226,"x_min":0,"x_max":0,"o":"m -71 724 l 57 965 l 110 938 l -18 694 z m 115 938 l 168 965 l 297 724 l 244 694 z m 83 554 l 143 554 l 143 -1 l 83 -1 z "},"ï":{"ha":226,"x_min":0,"x_max":0,"o":"m -153 783 l -79 921 l -26 892 l -100 754 z m -21 892 l 32 921 l 106 783 l 53 754 z m 124 783 l 197 921 l 250 892 l 176 754 z m 256 892 l 308 921 l 382 783 l 329 754 z m -96 694 l -96 754 l 49 754 l 49 694 z m 181 694 l 181 754 l 325 754 l 325 694 z m 83 554 l 143 554 l 143 -1 l 83 -1 z "},"ì":{"ha":226,"x_min":0,"x_max":0,"o":"m -50 936 l -11 982 l 278 740 l 240 694 z m 83 554 l 143 554 l 143 -1 l 83 -1 z "},"j":{"ha":483,"x_min":0,"x_max":0,"o":"m 281 913 l 281 972 l 385 972 l 385 913 z m 215 803 l 215 907 l 275 907 l 275 803 z m 390 803 l 390 907 l 449 907 l 449 803 z m 281 738 l 281 797 l 385 797 l 385 738 z m 304 0 l 304 556 l 364 556 l 364 0 z m 7 196 l 43 243 l 299 47 l 263 0 z "},"k":{"ha":653,"x_min":0,"x_max":0,"o":"m 97 0 l 97 972 l 157 972 l 157 0 z m 179 413 l 179 472 l 621 472 l 621 413 z m 158 364 l 200 406 l 582 25 l 540 -17 z "},"l":{"ha":329,"x_min":0,"x_max":0,"o":"m 97 61 l 97 972 l 157 972 l 157 61 z m 158 0 l 158 60 l 322 60 l 322 0 z "},"m":{"ha":990,"x_min":0,"x_max":0,"o":"m 144 496 l 144 556 l 846 556 l 846 496 z m 83 0 l 83 494 l 143 494 l 143 0 z m 847 0 l 847 494 l 907 494 l 907 0 z m 472 0 l 472 472 l 532 472 l 532 0 z "},"n":{"ha":758,"x_min":0,"x_max":0,"o":"m 146 375 l 668 567 l 689 510 l 167 318 z m 83 0 l 83 556 l 143 556 l 143 0 z m 594 0 l 594 474 l 654 474 l 654 0 z "},"ñ":{"ha":758,"x_min":0,"x_max":0,"o":"m 249 868 l 281 919 l 564 744 l 533 694 z m 569 750 l 606 907 l 664 893 l 626 736 z m 150 719 l 186 876 l 244 863 l 208 706 z m 146 375 l 668 567 l 689 510 l 167 318 z m 83 0 l 83 556 l 143 556 l 143 0 z m 594 0 l 594 474 l 654 474 l 654 0 z "},"o":{"ha":711,"x_min":0,"x_max":0,"o":"m 63 321 l 310 567 l 351 524 l 106 279 z m 361 524 l 404 567 l 649 322 l 607 281 z m 360 26 l 607 272 l 649 231 l 403 -17 z m 64 229 l 106 271 l 351 25 l 308 -17 z "},"ó":{"ha":711,"x_min":0,"x_max":0,"o":"m 192 740 l 481 982 l 518 938 l 229 694 z m 63 321 l 310 567 l 351 524 l 106 279 z m 361 524 l 404 567 l 649 322 l 607 281 z m 360 26 l 607 272 l 649 231 l 403 -17 z m 64 229 l 106 271 l 351 25 l 308 -17 z "},"ô":{"ha":711,"x_min":0,"x_max":0,"o":"m 171 724 l 299 965 l 351 938 l 224 694 z m 357 938 l 410 965 l 539 724 l 486 694 z m 63 321 l 310 567 l 351 524 l 106 279 z m 361 524 l 404 567 l 649 322 l 607 281 z m 360 26 l 607 272 l 649 231 l 403 -17 z m 64 229 l 106 271 l 351 25 l 308 -17 z "},"ö":{"ha":711,"x_min":0,"x_max":0,"o":"m 89 783 l 163 921 l 215 892 l 142 754 z m 221 892 l 274 921 l 347 783 l 294 754 z m 365 783 l 439 921 l 492 892 l 418 754 z m 497 892 l 550 921 l 624 783 l 571 754 z m 146 694 l 146 754 l 290 754 l 290 694 z m 422 694 l 422 754 l 567 754 l 567 694 z m 63 321 l 310 567 l 351 524 l 106 279 z m 361 524 l 404 567 l 649 322 l 607 281 z m 360 26 l 607 272 l 649 231 l 403 -17 z m 64 229 l 106 271 l 351 25 l 308 -17 z "},"ò":{"ha":711,"x_min":0,"x_max":0,"o":"m 192 936 l 231 982 l 519 740 l 482 694 z m 63 321 l 310 567 l 351 524 l 106 279 z m 361 524 l 404 567 l 649 322 l 607 281 z m 360 26 l 607 272 l 649 231 l 403 -17 z m 64 229 l 106 271 l 351 25 l 308 -17 z "},"ø":{"ha":701,"x_min":0,"x_max":0,"o":"m 653 607 l 503 464 l 400 567 l 357 524 l 460 422 l 199 174 l 101 271 l 60 229 l 156 132 l 7 -10 l 49 -53 l 199 90 l 304 -17 l 347 25 l 242 131 l 501 381 l 603 281 l 644 322 l 546 421 l 694 564 z m 306 567 l 58 321 l 101 279 l 347 524 z m 399 -17 l 644 231 l 603 272 l 356 26 z "},"œ":{"ha":1343,"x_min":0,"x_max":0,"o":"m 60 318 l 313 569 l 354 526 l 103 276 z m 358 526 l 401 569 l 642 332 l 600 290 z m 871 514 l 896 568 l 1301 378 l 1276 324 z m 357 25 l 856 522 l 897 481 l 400 -18 z m 746 267 l 746 326 l 1268 326 l 1268 267 z m 61 232 l 103 274 l 351 25 l 308 -17 z m 654 63 l 654 233 l 713 233 l 713 63 z m 715 0 l 715 60 l 1110 60 l 1110 0 z "},"p":{"ha":743,"x_min":0,"x_max":0,"o":"m 163 617 l 392 844 l 433 803 l 206 575 z m 438 803 l 481 844 l 708 617 l 667 575 z m 97 0 l 97 833 l 157 833 l 157 0 z m 438 342 l 665 571 l 707 528 l 479 300 z m 163 528 l 206 569 l 433 342 l 390 300 z "},"q":{"ha":743,"x_min":0,"x_max":0,"o":"m 35 617 l 263 844 l 306 803 l 76 575 z m 310 803 l 351 844 l 581 617 l 538 575 z m 586 833 l 646 833 l 646 0 l 586 0 z m 36 528 l 78 571 l 306 342 l 264 300 z m 310 342 l 538 569 l 581 528 l 353 300 z "},"r":{"ha":539,"x_min":0,"x_max":0,"o":"m 83 0 l 83 556 l 143 556 l 143 0 z m 163 496 l 163 556 l 367 556 l 367 496 z m 368 496 l 403 544 l 518 461 l 483 414 z "},"s":{"ha":661,"x_min":0,"x_max":0,"o":"m 86 496 l 86 556 l 619 556 l 619 496 z m 103 442 l 142 486 l 556 117 l 515 72 z m 42 0 l 42 60 l 575 60 l 575 0 z "},"ß":{"ha":599,"x_min":0,"x_max":0,"o":"m 0 1085 l 44 1125 l 464 656 l 419 617 z m 85 -181 l 85 922 l 144 922 l 144 -181 z m 243 439 l 419 611 l 461 568 l 285 397 z m 147 436 l 192 476 l 528 100 l 483 61 z m 229 0 l 229 60 l 564 60 l 564 0 z "},"t":{"ha":513,"x_min":0,"x_max":0,"o":"m 226 651 l 226 972 l 286 972 l 286 651 z m 14 572 l 14 632 l 499 632 l 499 572 z m 226 0 l 226 556 l 286 556 l 286 0 z "},"u":{"ha":669,"x_min":0,"x_max":0,"o":"m 83 61 l 83 556 l 143 556 l 143 61 z m 526 61 l 526 556 l 586 556 l 586 61 z m 144 0 l 144 60 l 525 60 l 525 0 z "},"ú":{"ha":669,"x_min":0,"x_max":0,"o":"m 171 740 l 460 982 l 497 938 l 208 694 z m 83 61 l 83 556 l 143 556 l 143 61 z m 526 61 l 526 556 l 586 556 l 586 61 z m 144 0 l 144 60 l 525 60 l 525 0 z "},"û":{"ha":669,"x_min":0,"x_max":0,"o":"m 150 724 l 278 965 l 331 938 l 203 694 z m 336 938 l 389 965 l 518 724 l 465 694 z m 83 61 l 83 556 l 143 556 l 143 61 z m 526 61 l 526 556 l 586 556 l 586 61 z m 144 0 l 144 60 l 525 60 l 525 0 z "},"ü":{"ha":669,"x_min":0,"x_max":0,"o":"m 68 783 l 142 921 l 194 892 l 121 754 z m 200 892 l 253 921 l 326 783 l 274 754 z m 344 783 l 418 921 l 471 892 l 397 754 z m 476 892 l 529 921 l 603 783 l 550 754 z m 125 694 l 125 754 l 269 754 l 269 694 z m 401 694 l 401 754 l 546 754 l 546 694 z m 83 61 l 83 556 l 143 556 l 143 61 z m 526 61 l 526 556 l 586 556 l 586 61 z m 144 0 l 144 60 l 525 60 l 525 0 z "},"ù":{"ha":669,"x_min":0,"x_max":0,"o":"m 171 936 l 210 982 l 499 740 l 461 694 z m 83 61 l 83 556 l 143 556 l 143 61 z m 526 61 l 526 556 l 586 556 l 586 61 z m 144 0 l 144 60 l 525 60 l 525 0 z "},"v":{"ha":696,"x_min":0,"x_max":0,"o":"m 14 540 l 67 567 l 349 10 l 294 -17 z m 350 10 l 629 567 l 682 540 l 403 -17 z "},"w":{"ha":1039,"x_min":0,"x_max":0,"o":"m 31 549 l 88 567 l 274 1 l 217 -17 z m 275 1 l 461 567 l 518 549 l 332 -17 z m 519 549 l 576 567 l 763 1 l 706 -17 z m 764 1 l 949 567 l 1006 549 l 819 -17 z "},"x":{"ha":672,"x_min":0,"x_max":0,"o":"m 28 518 l 63 567 l 333 365 l 297 318 z m 339 365 l 610 567 l 644 518 l 375 318 z m 81 17 l 282 318 l 331 286 l 129 -17 z m 342 286 l 390 318 l 592 17 l 543 -17 z "},"y":{"ha":625,"x_min":0,"x_max":0,"o":"m 21 829 l 78 850 l 290 263 l 235 243 z m 293 263 l 506 850 l 563 829 l 349 243 z m 376 313 l 425 344 l 590 93 l 542 61 z m 108 0 l 108 60 l 540 60 l 540 0 z "},"ý":{"ha":625,"x_min":0,"x_max":0,"o":"m 132 990 l 421 1232 l 458 1188 l 169 944 z m 21 829 l 78 850 l 290 263 l 235 243 z m 293 263 l 506 850 l 563 829 l 349 243 z m 376 313 l 425 344 l 590 93 l 542 61 z m 108 0 l 108 60 l 540 60 l 540 0 z "},"ŷ":{"ha":625,"x_min":0,"x_max":0,"o":"m 111 974 l 239 1215 l 292 1188 l 164 944 z m 297 1188 l 350 1215 l 479 974 l 426 944 z m 21 829 l 78 850 l 290 263 l 235 243 z m 293 263 l 506 850 l 563 829 l 349 243 z m 376 313 l 425 344 l 590 93 l 542 61 z m 108 0 l 108 60 l 540 60 l 540 0 z "},"ÿ":{"ha":625,"x_min":0,"x_max":0,"o":"m 29 1033 l 103 1171 l 156 1142 l 82 1004 z m 161 1142 l 214 1171 l 288 1033 l 235 1004 z m 306 1033 l 379 1171 l 432 1142 l 358 1004 z m 438 1142 l 490 1171 l 564 1033 l 511 1004 z m 86 944 l 86 1004 l 231 1004 l 231 944 z m 363 944 l 363 1004 l 507 1004 l 507 944 z m 21 829 l 78 850 l 290 263 l 235 243 z m 293 263 l 506 850 l 563 829 l 349 243 z m 376 313 l 425 344 l 590 93 l 542 61 z m 108 0 l 108 60 l 540 60 l 540 0 z "},"ỳ":{"ha":625,"x_min":0,"x_max":0,"o":"m 132 1186 l 171 1232 l 460 990 l 422 944 z m 21 829 l 78 850 l 290 263 l 235 243 z m 293 263 l 506 850 l 563 829 l 349 243 z m 376 313 l 425 344 l 590 93 l 542 61 z m 108 0 l 108 60 l 540 60 l 540 0 z "},"z":{"ha":832,"x_min":0,"x_max":0,"o":"m 28 496 l 28 556 l 701 556 l 701 496 z m 92 111 l 701 494 l 733 444 l 124 61 z m 124 0 l 124 60 l 804 60 l 804 0 z "},".":{"ha":397,"x_min":0,"x_max":0,"o":"m 69 89 l 143 226 l 196 197 l 122 60 z m 201 197 l 254 226 l 328 89 l 275 60 z m 126 0 l 126 60 l 271 60 l 271 0 z "},",":{"ha":500,"x_min":0,"x_max":0,"o":"m 186 90 l 256 229 l 308 203 l 239 64 z m 304 185 l 361 197 l 389 78 l 331 65 z m 42 0 l 42 60 l 329 60 l 329 0 z "},":":{"ha":439,"x_min":0,"x_max":0,"o":"m 69 553 l 143 690 l 196 663 l 122 524 z m 201 663 l 253 690 l 328 553 l 275 524 z m 126 464 l 126 524 l 271 524 l 271 464 z m 69 89 l 143 226 l 196 197 l 122 60 z m 201 197 l 253 226 l 328 89 l 275 60 z m 126 0 l 126 60 l 271 60 l 271 0 z "},";":{"ha":440,"x_min":0,"x_max":0,"o":"m 71 554 l 144 692 l 197 664 l 122 526 z m 203 664 l 254 692 l 329 554 l 276 526 z m 128 467 l 128 525 l 272 525 l 272 467 z m 101 158 l 221 186 l 235 128 l 115 101 z m 240 -161 l 240 126 l 299 126 l 299 -161 z m 69 53 l 96 106 l 236 36 l 210 -17 z "},"…":{"ha":1032,"x_min":0,"x_max":0,"o":"m 43 89 l 117 226 l 169 197 l 96 60 z m 175 197 l 228 226 l 301 89 l 249 60 z m 388 89 l 461 226 l 514 197 l 440 60 z m 519 197 l 572 226 l 646 89 l 593 60 z m 732 89 l 806 226 l 858 197 l 785 60 z m 864 197 l 917 226 l 990 89 l 938 60 z m 100 0 l 100 60 l 244 60 l 244 0 z m 444 0 l 444 60 l 589 60 l 589 0 z m 789 0 l 789 60 l 933 60 l 933 0 z "},"!":{"ha":324,"x_min":0,"x_max":0,"o":"m 126 290 l 126 972 l 186 972 l 186 290 z m 163 183 l 214 213 l 282 94 l 231 65 z m 42 90 l 100 210 l 153 183 l 94 64 z m 97 0 l 97 60 l 228 60 l 228 0 z "},"¡":{"ha":324,"x_min":0,"x_max":0,"o":"m 228 913 l 97 913 l 97 972 l 228 972 z m 153 789 l 100 763 l 42 882 l 94 908 z m 282 878 l 214 760 l 163 789 l 231 907 z m 186 0 l 126 0 l 126 682 l 186 682 z "},"?":{"ha":585,"x_min":0,"x_max":0,"o":"m 14 913 l 14 972 l 521 972 l 521 913 z m 132 390 l 524 906 l 571 869 l 181 354 z m 182 289 l 182 349 l 335 349 l 335 289 z m 242 183 l 293 213 l 361 94 l 310 65 z m 121 90 l 179 210 l 232 183 l 174 64 z m 176 0 l 176 60 l 307 60 l 307 0 z "},"¿":{"ha":585,"x_min":0,"x_max":0,"o":"m 408 972 l 408 913 l 278 913 l 278 972 z m 464 882 l 406 763 l 353 789 l 411 908 z m 343 789 l 292 760 l 224 878 l 275 907 z m 403 683 l 403 624 l 250 624 l 250 683 z m 453 582 l 61 67 l 14 103 l 404 618 z m 571 60 l 571 0 l 64 0 l 64 60 z "},"·":{"ha":369,"x_min":0,"x_max":0,"o":"m 56 367 l 129 504 l 182 475 l 108 338 z m 188 475 l 240 504 l 314 367 l 261 338 z m 113 278 l 113 338 l 257 338 l 257 278 z "},"*":{"ha":775,"x_min":0,"x_max":0,"o":"m 357 663 l 357 972 l 417 972 l 417 663 z m 42 700 l 60 757 l 354 661 l 336 604 z m 421 661 l 714 757 l 733 700 l 439 604 z m 390 565 l 438 601 l 619 350 l 571 315 z m 156 350 l 336 600 l 385 565 l 204 315 z "},"#":{"ha":778,"x_min":0,"x_max":0,"o":"m 254 699 l 296 983 l 356 975 l 314 690 z m 540 699 l 582 983 l 642 975 l 600 690 z m 111 626 l 111 686 l 722 686 l 722 626 z m 201 353 l 242 622 l 300 614 l 260 344 z m 488 353 l 528 622 l 588 614 l 546 344 z m 56 283 l 56 343 l 667 343 l 667 283 z m 149 -8 l 192 278 l 250 269 l 207 -17 z m 435 -8 l 478 278 l 536 269 l 494 -17 z "},"/":{"ha":561,"x_min":0,"x_max":0,"o":"m 42 -74 l 463 1111 l 519 1092 l 99 -94 z "},"\\":{"ha":561,"x_min":0,"x_max":0,"o":"m 42 1092 l 99 1111 l 519 -74 l 463 -94 z "},"(":{"ha":486,"x_min":0,"x_max":0,"o":"m 264 1111 l 440 1111 l 440 1051 l 264 1051 z m 29 567 l 206 1071 l 263 1051 l 85 547 z m 28 528 l 85 546 l 264 1 l 207 -18 z m 265 0 l 444 0 l 444 -60 l 265 -60 z "},")":{"ha":486,"x_min":0,"x_max":0,"o":"m 46 1051 l 46 1111 l 222 1111 l 222 1051 z m 224 1051 l 281 1071 l 457 567 l 401 547 z m 222 1 l 401 546 l 458 528 l 279 -18 z m 42 -60 l 42 0 l 221 0 l 221 -60 z "},"{":{"ha":439,"x_min":0,"x_max":0,"o":"m 240 1111 l 397 1111 l 397 1051 l 240 1051 z m 179 1050 l 239 1050 l 239 669 l 179 669 z m 29 585 l 179 668 l 208 617 l 57 533 z m 28 481 l 57 532 l 208 447 l 179 396 z m 179 394 l 239 394 l 239 1 l 179 1 z m 240 0 l 397 0 l 397 -60 l 240 -60 z "},"}":{"ha":438,"x_min":0,"x_max":0,"o":"m 42 1051 l 42 1111 l 197 1111 l 197 1051 z m 199 669 l 199 1050 l 258 1050 l 258 669 z m 229 617 l 258 668 l 408 585 l 381 533 z m 229 447 l 381 532 l 410 481 l 258 396 z m 199 1 l 199 394 l 258 394 l 258 1 z m 42 -60 l 42 0 l 197 0 l 197 -60 z "},"[":{"ha":425,"x_min":0,"x_max":0,"o":"m 172 1111 l 382 1111 l 382 1051 l 172 1051 z m 111 1050 l 171 1050 l 171 1 l 111 1 z m 172 0 l 382 0 l 382 -60 l 172 -60 z "},"]":{"ha":424,"x_min":0,"x_max":0,"o":"m 42 1051 l 42 1111 l 251 1111 l 251 1051 z m 253 1 l 253 1050 l 313 1050 l 313 1 z m 42 -60 l 42 0 l 251 0 l 251 -60 z "},"-":{"ha":428,"x_min":0,"x_max":0,"o":"m 28 496 l 28 556 l 400 556 l 400 496 z "},"–":{"ha":640,"x_min":0,"x_max":0,"o":"m 28 496 l 28 556 l 613 556 l 613 496 z "},"—":{"ha":1104,"x_min":0,"x_max":0,"o":"m 28 496 l 28 556 l 1076 556 l 1076 496 z "},"_":{"ha":613,"x_min":0,"x_max":0,"o":"m 14 -60 l 14 0 l 599 0 l 599 -60 z "},"‚":{"ha":342,"x_min":0,"x_max":0,"o":"m 74 158 l 193 185 l 207 126 l 88 100 z m 213 -161 l 213 125 l 272 125 l 272 -161 z m 42 53 l 68 106 l 208 36 l 182 -17 z "},"„":{"ha":622,"x_min":0,"x_max":0,"o":"m 74 158 l 193 185 l 206 126 l 86 100 z m 354 158 l 474 185 l 488 126 l 368 100 z m 211 -161 l 211 125 l 271 125 l 271 -161 z m 493 -161 l 493 125 l 553 125 l 553 -161 z m 42 53 l 68 106 l 207 36 l 181 -17 z m 322 53 l 349 106 l 489 36 l 463 -17 z "},"“":{"ha":622,"x_min":0,"x_max":0,"o":"m 69 686 l 69 972 l 129 972 l 129 686 z m 350 686 l 350 972 l 410 972 l 410 686 z m 133 775 l 160 829 l 299 760 l 272 706 z m 414 775 l 440 829 l 581 760 l 553 706 z m 135 685 l 253 711 l 267 653 l 147 626 z m 415 685 l 535 711 l 547 653 l 429 626 z "},"”":{"ha":622,"x_min":0,"x_max":0,"o":"m 74 957 l 193 983 l 206 925 l 86 899 z m 354 957 l 474 983 l 488 925 l 368 899 z m 211 638 l 211 924 l 271 924 l 271 638 z m 493 638 l 493 924 l 553 924 l 553 638 z m 42 851 l 68 904 l 207 835 l 181 782 z m 322 851 l 349 904 l 489 835 l 463 782 z "},"‘":{"ha":342,"x_min":0,"x_max":0,"o":"m 69 686 l 69 972 l 129 972 l 129 686 z m 133 775 l 160 829 l 300 760 l 272 706 z m 135 685 l 254 711 l 267 653 l 149 626 z "},"’":{"ha":342,"x_min":0,"x_max":0,"o":"m 74 957 l 193 983 l 207 925 l 88 899 z m 213 638 l 213 924 l 272 924 l 272 638 z m 42 851 l 68 904 l 208 835 l 182 782 z "},"‛":{"ha":340,"x_min":0,"x_max":0,"o":"m 135 925 l 147 983 l 267 957 l 254 899 z m 69 924 l 129 924 l 129 638 l 69 638 z m 133 835 l 272 904 l 299 851 l 160 782 z "},"‟":{"ha":622,"x_min":0,"x_max":0,"o":"m 135 925 l 149 983 l 268 957 l 254 899 z m 417 925 l 429 983 l 549 957 l 536 899 z m 69 924 l 129 924 l 129 638 l 69 638 z m 351 924 l 411 924 l 411 638 l 351 638 z m 133 835 l 274 904 l 300 851 l 160 782 z m 415 835 l 554 904 l 581 851 l 442 782 z "},"«":{"ha":536,"x_min":0,"x_max":0,"o":"m 56 478 l 243 665 l 285 624 l 97 436 z m 238 478 l 425 665 l 467 624 l 279 436 z m 285 243 l 243 201 l 56 389 l 97 431 z m 467 243 l 425 201 l 238 389 l 279 431 z "},"»":{"ha":536,"x_min":0,"x_max":0,"o":"m 69 624 l 111 665 l 299 478 l 257 436 z m 251 624 l 293 665 l 481 478 l 439 436 z m 299 389 l 111 201 l 69 243 l 257 431 z m 481 389 l 293 201 l 251 243 l 439 431 z "},"‹":{"ha":354,"x_min":0,"x_max":0,"o":"m 56 478 l 243 665 l 285 624 l 97 436 z m 285 243 l 243 201 l 56 389 l 97 431 z "},"›":{"ha":354,"x_min":0,"x_max":0,"o":"m 69 624 l 111 665 l 299 478 l 257 436 z m 299 389 l 111 201 l 69 243 l 257 431 z "},"\"":{"ha":397,"x_min":0,"x_max":0,"o":"m 69 636 l 103 982 l 161 976 l 128 629 z m 222 636 l 256 982 l 314 976 l 281 629 z "},"'":{"ha":217,"x_min":0,"x_max":0,"o":"m 69 636 l 103 982 l 161 976 l 128 629 z "},"¢":{"ha":707,"x_min":0,"x_max":0,"o":"m 322 817 l 322 1153 l 382 1153 l 382 817 z m 307 772 l 347 815 l 597 578 l 556 535 z m 33 324 l 251 797 l 306 772 l 88 299 z m 89 236 l 89 296 l 665 296 l 665 236 z m 322 -111 l 322 215 l 382 215 l 382 -111 z "},"$":{"ha":665,"x_min":0,"x_max":0,"o":"m 267 850 l 267 1208 l 326 1208 l 326 850 z m 31 553 l 463 983 l 504 940 l 74 510 z m 47 449 l 47 508 l 603 508 l 603 449 z m 151 26 l 593 447 l 633 404 l 193 -17 z m 378 -197 l 378 156 l 438 156 l 438 -197 z "},"€":{"ha":933,"x_min":0,"x_max":0,"o":"m 413 913 l 413 972 l 847 972 l 847 913 z m 199 72 l 353 924 l 411 913 l 257 61 z m 849 707 l 849 911 l 908 911 l 908 707 z m 269 567 l 49 567 l 49 626 l 269 626 z m 661 567 l 376 567 l 376 626 l 661 626 z m 236 381 l 21 381 l 21 440 l 236 440 z m 633 381 l 343 381 l 343 440 l 633 440 z m 704 61 l 756 332 l 815 321 l 763 50 z m 257 0 l 257 60 l 703 60 l 703 0 z "},"£":{"ha":732,"x_min":0,"x_max":0,"o":"m 71 85 l 490 983 l 546 958 l 126 60 z m 246 465 l 22 465 l 22 525 l 246 525 z m 682 465 l 346 465 l 346 525 l 682 525 z m 500 60 l 651 188 l 689 142 l 539 14 z m 128 0 l 128 60 l 499 60 l 499 0 z "},"₩":{"ha":1304,"x_min":0,"x_max":0,"o":"m 275 976 l 335 983 l 458 0 l 399 -7 z m 463 0 l 586 983 l 646 976 l 522 -7 z m 650 976 l 710 983 l 832 0 l 772 -7 z m 836 0 l 958 983 l 1018 976 l 896 -7 z m 313 493 l 7 493 l 7 553 l 313 553 z m 1289 493 l 982 493 l 982 553 l 1289 553 z "},"¥":{"ha":942,"x_min":0,"x_max":0,"o":"m 7 940 l 47 983 l 469 589 l 428 546 z m 472 589 l 894 983 l 935 939 l 513 546 z m 440 0 l 440 556 l 500 556 l 500 0 z m 424 468 l 126 468 l 126 528 l 424 528 z m 813 468 l 515 468 l 515 528 l 813 528 z "},"+":{"ha":833,"x_min":0,"x_max":0,"o":"m 394 558 l 394 885 l 454 885 l 454 558 z m 64 496 l 64 556 l 392 556 l 392 496 z m 457 496 l 457 556 l 785 556 l 785 496 z m 394 165 l 394 494 l 454 494 l 454 165 z "},"−":{"ha":833,"x_min":0,"x_max":0,"o":"m 61 496 l 61 556 l 778 556 l 778 496 z "},"×":{"ha":729,"x_min":0,"x_max":0,"o":"m 56 772 l 99 814 l 363 550 l 319 508 z m 367 550 l 632 814 l 674 772 l 410 508 z m 56 238 l 319 504 l 363 463 l 99 196 z m 367 461 l 410 503 l 674 238 l 632 196 z "},"÷":{"ha":800,"x_min":0,"x_max":0,"o":"m 397 856 l 322 718 l 271 747 l 344 885 z m 529 747 l 476 718 l 401 856 l 454 885 z m 472 718 l 472 658 l 326 658 l 326 718 z m 42 496 l 42 556 l 758 556 l 758 496 z m 271 257 l 344 394 l 397 365 l 322 228 z m 401 365 l 454 394 l 529 257 l 476 228 z m 326 168 l 326 228 l 472 228 l 472 168 z "},"=":{"ha":682,"x_min":0,"x_max":0,"o":"m 42 496 l 42 556 l 640 556 l 640 496 z m 42 310 l 42 369 l 640 369 l 640 310 z "},">":{"ha":433,"x_min":0,"x_max":0,"o":"m 35 768 l 72 814 l 392 550 l 354 504 z m 35 238 l 354 501 l 392 456 l 72 192 z "},"<":{"ha":433,"x_min":0,"x_max":0,"o":"m 35 550 l 354 814 l 392 768 l 72 504 z m 35 456 l 72 501 l 392 238 l 354 192 z "},"±":{"ha":685,"x_min":0,"x_max":0,"o":"m 313 558 l 313 826 l 372 826 l 372 558 z m 42 496 l 42 556 l 311 556 l 311 496 z m 374 496 l 374 556 l 643 556 l 643 496 z m 313 225 l 313 494 l 372 494 l 372 225 z m 43 61 l 43 121 l 640 121 l 640 61 z "},"~":{"ha":921,"x_min":0,"x_max":0,"o":"m 240 660 l 283 703 l 708 276 l 667 235 z m 28 511 l 188 699 l 233 660 l 72 472 z m 715 278 l 847 436 l 893 399 l 761 239 z "},"^":{"ha":510,"x_min":0,"x_max":0,"o":"m 42 635 l 197 983 l 251 960 l 96 611 z m 258 960 l 313 983 l 468 635 l 414 611 z "},"∫":{"ha":619,"x_min":0,"x_max":0,"o":"m 460 938 l 499 983 l 613 886 l 574 840 z m 163 29 l 399 950 l 456 936 l 221 15 z m 7 81 l 46 126 l 160 29 l 121 -17 z "},"∑":{"ha":554,"x_min":0,"x_max":0,"o":"m 526 913 l 526 972 l 101 972 l 101 913 z m 382 529 l 119 910 l 69 876 l 332 494 z m 382 453 l 332 486 l 69 96 l 119 63 z m 526 0 l 526 60 l 101 60 l 101 0 z "},"√":{"ha":694,"x_min":0,"x_max":0,"o":"m 494 913 l 494 972 l 681 972 l 681 913 z m 250 -4 l 433 921 l 492 908 l 308 -17 z m 42 667 l 100 679 l 246 -4 l 188 -17 z "},"%":{"ha":856,"x_min":0,"x_max":0,"o":"m 103 7 l 706 997 l 757 967 l 154 -24 z m 147 850 l 147 910 l 304 910 l 304 850 z m 83 689 l 83 844 l 142 844 l 142 689 z m 310 689 l 310 844 l 369 844 l 369 689 z m 149 624 l 149 683 l 304 683 l 304 624 z m 551 283 l 551 343 l 707 343 l 707 283 z m 486 122 l 486 278 l 546 278 l 546 122 z m 713 122 l 713 278 l 772 278 l 772 122 z m 551 57 l 551 117 l 707 117 l 707 57 z "},"↑":{"ha":876,"x_min":0,"x_max":0,"o":"m 392 972 l 433 929 l 111 608 l 69 650 z m 486 972 l 807 651 l 765 608 l 443 929 z m 408 896 l 468 896 l 468 0 l 408 0 z "},"↗":{"ha":1063,"x_min":0,"x_max":0,"o":"m 385 913 l 385 972 l 926 972 l 926 913 z m 14 42 l 885 907 l 928 864 l 56 0 z m 933 364 l 933 906 l 993 906 l 993 364 z "},"→":{"ha":1057,"x_min":0,"x_max":0,"o":"m 624 814 l 667 856 l 988 535 l 944 492 z m 15 517 l 911 517 l 911 457 l 15 457 z m 624 160 l 944 482 l 988 440 l 665 118 z "},"↘":{"ha":1063,"x_min":0,"x_max":0,"o":"m 928 108 l 885 65 l 14 931 l 56 972 z m 993 67 l 933 67 l 933 608 l 993 608 z m 926 0 l 385 0 l 385 60 l 926 60 z "},"↓":{"ha":876,"x_min":0,"x_max":0,"o":"m 468 972 l 468 76 l 408 76 l 408 972 z m 111 364 l 433 43 l 392 0 l 69 322 z m 765 364 l 807 321 l 486 0 l 443 43 z "},"↙":{"ha":1067,"x_min":0,"x_max":0,"o":"m 1049 931 l 178 65 l 135 108 l 1007 972 z m 129 608 l 129 67 l 69 67 l 69 608 z m 678 60 l 678 0 l 136 0 l 136 60 z "},"←":{"ha":1056,"x_min":0,"x_max":0,"o":"m 69 535 l 390 856 l 433 814 l 113 492 z m 146 457 l 146 517 l 1042 517 l 1042 457 z m 69 440 l 113 482 l 433 160 l 392 118 z "},"↖":{"ha":1063,"x_min":0,"x_max":0,"o":"m 136 972 l 678 972 l 678 913 l 136 913 z m 135 864 l 178 907 l 1049 42 l 1007 0 z m 69 906 l 129 906 l 129 364 l 69 364 z "},"↔":{"ha":1111,"x_min":0,"x_max":0,"o":"m 69 531 l 392 851 l 433 810 l 113 488 z m 1042 531 l 721 851 l 679 810 l 1000 488 z m 144 453 l 144 513 l 964 513 l 964 453 z m 69 436 l 111 478 l 426 163 l 383 121 z m 1042 436 l 1000 478 l 685 163 l 726 121 z "},"↕":{"ha":897,"x_min":0,"x_max":0,"o":"m 399 972 l 440 931 l 125 615 l 83 658 z m 493 972 l 814 650 l 772 608 l 450 929 z m 415 897 l 475 897 l 475 78 l 415 78 z m 493 0 l 814 321 l 772 363 l 450 42 z m 399 0 l 440 42 l 125 357 l 83 315 z "},"◊":{"ha":1039,"x_min":0,"x_max":0,"o":"m 72 590 l 474 972 l 517 929 l 113 547 z m 521 929 l 564 972 l 965 590 l 925 547 z m 69 542 l 129 542 l 129 64 l 69 64 z m 910 542 l 969 542 l 969 64 l 910 64 z m 131 0 l 131 60 l 908 60 l 908 0 z "},"△":{"ha":1053,"x_min":0,"x_max":0,"o":"m 14 94 l 469 983 l 522 956 l 67 68 z m 535 957 l 588 983 l 1039 94 l 985 68 z m 75 0 l 75 60 l 982 60 l 982 0 z "},"♥":{"ha":1324,"x_min":0,"x_max":0,"o":"m 28 689 l 299 983 l 343 943 l 72 649 z m 346 942 l 389 983 l 658 694 l 615 654 z m 665 694 l 933 983 l 976 942 l 708 654 z m 979 943 l 1024 983 l 1294 689 l 1251 649 z m 29 606 l 72 646 l 658 24 l 615 -17 z m 665 24 l 1253 646 l 1296 606 l 708 -17 z "},"@":{"ha":1113,"x_min":0,"x_max":0,"o":"m 543 944 l 578 993 l 1032 665 l 997 618 z m 92 660 l 503 990 l 540 944 l 129 614 z m 422 619 l 422 679 l 715 679 l 715 619 z m 997 342 l 997 617 l 1057 617 l 1057 342 z m 69 0 l 69 613 l 129 613 l 129 0 z m 625 76 l 625 599 l 685 599 l 685 76 z m 408 400 l 443 447 l 622 321 l 588 272 z m 268 176 l 350 418 l 407 399 l 325 157 z m 738 43 l 997 340 l 1042 301 l 783 4 z m 313 96 l 328 154 l 735 42 l 719 -17 z "},"&":{"ha":857,"x_min":0,"x_max":0,"o":"m 186 832 l 386 986 l 422 939 l 224 785 z m 425 939 l 472 975 l 656 733 l 607 697 z m 176 746 l 224 782 l 390 561 l 343 525 z m 67 296 l 607 693 l 643 646 l 101 249 z m 407 446 l 454 482 l 892 -92 l 843 -128 z m 711 147 l 711 469 l 771 469 l 771 147 z m 56 208 l 101 246 l 249 63 l 201 25 z m 251 0 l 251 60 l 699 60 l 699 0 z "},"¶":{"ha":575,"x_min":0,"x_max":0,"o":"m 32 647 l 425 983 l 464 939 l 71 603 z m 297 -181 l 297 794 l 357 794 l 357 -181 z m 403 -181 l 403 794 l 463 794 l 463 -181 z m 28 560 l 71 601 l 294 369 l 251 329 z "},"§":{"ha":542,"x_min":0,"x_max":0,"o":"m 104 835 l 369 983 l 399 931 l 133 782 z m 404 813 l 404 972 l 464 972 l 464 813 z m 97 733 l 135 779 l 472 517 l 435 469 z m 82 553 l 233 624 l 258 571 l 108 499 z m 69 450 l 107 497 l 444 235 l 407 188 z m 282 397 l 432 468 l 458 414 l 307 343 z m 143 35 l 407 185 l 436 133 l 172 -17 z m 78 0 l 78 160 l 138 160 l 138 0 z "},"°":{"ha":369,"x_min":0,"x_max":0,"o":"m 106 913 l 106 972 l 263 972 l 263 913 z m 42 751 l 42 907 l 100 907 l 100 751 z m 268 751 l 268 907 l 328 907 l 328 751 z m 107 686 l 107 746 l 263 746 l 263 686 z "},"|":{"ha":282,"x_min":0,"x_max":0,"o":"m 111 0 l 111 972 l 171 972 l 171 0 z "},"¦":{"ha":282,"x_min":0,"x_max":0,"o":"m 111 607 l 111 972 l 171 972 l 171 607 z m 111 0 l 111 365 l 171 365 l 171 0 z "},"†":{"ha":490,"x_min":0,"x_max":0,"o":"m 215 801 l 215 972 l 275 972 l 275 801 z m 42 739 l 42 799 l 214 799 l 214 739 z m 276 739 l 276 799 l 449 799 l 449 739 z m 215 322 l 215 738 l 275 738 l 275 322 z "},"‡":{"ha":490,"x_min":0,"x_max":0,"o":"m 215 801 l 215 972 l 275 972 l 275 801 z m 42 739 l 42 799 l 214 799 l 214 739 z m 276 739 l 276 799 l 449 799 l 449 739 z m 215 554 l 215 736 l 275 736 l 275 554 z m 42 493 l 42 553 l 214 553 l 214 493 z m 276 493 l 276 553 l 449 553 l 449 493 z m 215 322 l 215 492 l 275 492 l 275 322 z "},"̈":{"ha":0,"x_min":0,"x_max":0,"o":"m -535 1200 l -461 1338 l -408 1308 l -482 1171 z m -403 1308 l -350 1338 l -276 1200 l -329 1171 z m -258 1200 l -185 1338 l -132 1308 l -206 1171 z m -126 1308 l -74 1338 l 0 1200 l -53 1171 z m -478 1111 l -478 1171 l -333 1171 l -333 1111 z m -201 1111 l -201 1171 l -57 1171 l -57 1111 z "},"̀":{"ha":0,"x_min":0,"x_max":0,"o":"m -328 1353 l -289 1399 l 0 1157 l -37 1111 z "},"́":{"ha":0,"x_min":0,"x_max":0,"o":"m -326 1157 l -37 1399 l 0 1354 l -289 1111 z "},"̂":{"ha":0,"x_min":0,"x_max":0,"o":"m -368 1140 l -240 1382 l -187 1354 l -315 1111 z m -182 1354 l -129 1382 l 0 1140 l -53 1111 z "},"̊":{"ha":0,"x_min":0,"x_max":0,"o":"m -217 1332 l -217 1392 l -65 1392 l -65 1332 z m -282 1176 l -282 1326 l -222 1326 l -222 1176 z m -60 1176 l -60 1326 l 0 1326 l 0 1176 z m -217 1111 l -217 1171 l -65 1171 l -65 1111 z "},"̃":{"ha":0,"x_min":0,"x_max":0,"o":"m -415 1285 l -383 1336 l -100 1161 l -131 1111 z m -94 1167 l -58 1324 l 0 1310 l -37 1153 z m -514 1136 l -478 1293 l -419 1279 l -456 1122 z "},"̧":{"ha":0,"x_min":0,"x_max":0,"o":"m -289 -132 l -265 -78 l 0 -190 l -24 -244 z m 0 -306 l -265 -418 l -289 -364 l -24 -251 z "},"̸":{"ha":0,"x_min":0,"x_max":0,"o":"m -943 75 l -42 933 l 0 890 l -901 32 z "},"¨":{"ha":535,"x_min":0,"x_max":0,"o":"m 0 1200 l 74 1338 l 126 1308 l 53 1171 z m 132 1308 l 185 1338 l 258 1200 l 206 1171 z m 276 1200 l 350 1338 l 403 1308 l 329 1171 z m 408 1308 l 461 1338 l 535 1200 l 482 1171 z m 57 1111 l 57 1171 l 201 1171 l 201 1111 z m 333 1111 l 333 1171 l 478 1171 l 478 1111 z "},"`":{"ha":328,"x_min":0,"x_max":0,"o":"m 0 1353 l 39 1399 l 328 1157 l 290 1111 z "},"´":{"ha":326,"x_min":0,"x_max":0,"o":"m 0 1157 l 289 1399 l 326 1354 l 38 1111 z "},"ˆ":{"ha":368,"x_min":0,"x_max":0,"o":"m 0 1140 l 128 1382 l 181 1354 l 53 1111 z m 186 1354 l 239 1382 l 368 1140 l 315 1111 z "},"˚":{"ha":282,"x_min":0,"x_max":0,"o":"m 65 1332 l 65 1392 l 217 1392 l 217 1332 z m 0 1176 l 0 1326 l 60 1326 l 60 1176 z m 222 1176 l 222 1326 l 282 1326 l 282 1176 z m 65 1111 l 65 1171 l 217 1171 l 217 1111 z "},"˜":{"ha":514,"x_min":0,"x_max":0,"o":"m 99 1285 l 131 1336 l 414 1161 l 383 1111 z m 419 1167 l 456 1324 l 514 1310 l 476 1153 z m 0 1136 l 36 1293 l 94 1279 l 58 1122 z "},"¸":{"ha":289,"x_min":0,"x_max":0,"o":"m 0 -132 l 24 -78 l 289 -190 l 265 -244 z m 289 -306 l 24 -418 l 0 -364 l 265 -251 z "}}}
